<svg width="400" height="416" viewBox="0 0 400 416" fill="none" xmlns="http://www.w3.org/2000/svg">
<rect width="400" height="416" fill="white"/>
<path d="M286.362 129.12C280.642 129.987 276.395 131.46 273.622 133.54C271.022 135.62 269.202 138.913 268.162 143.42C267.295 147.927 266.862 154.6 266.862 163.44V308.52L260.622 308.26L253.602 308.52L140.762 165.52V265.36C140.762 275.587 141.282 283.127 142.322 287.98C143.362 292.66 145.615 296.127 149.082 298.38C152.548 300.46 158.182 301.933 165.982 302.8V308C159.222 307.48 149.862 307.22 137.902 307.22C128.368 307.22 120.828 307.48 115.282 308V302.8C121.002 301.933 125.162 300.46 127.762 298.38C130.535 296.3 132.355 293.007 133.222 288.5C134.262 283.993 134.782 277.32 134.782 268.48V151.48C134.782 144.893 134.262 140.127 133.222 137.18C132.355 134.233 130.535 132.24 127.762 131.2C125.162 130.16 121.002 129.467 115.282 129.12V123.92C120.828 124.44 128.368 124.7 137.902 124.7C146.568 124.7 154.022 124.44 160.262 123.92L260.882 247.94V166.56C260.882 156.333 260.362 148.88 259.322 144.2C258.282 139.347 256.028 135.88 252.562 133.8C249.095 131.547 243.462 129.987 235.662 129.12V123.92C242.422 124.44 251.782 124.7 263.742 124.7C273.448 124.7 280.988 124.44 286.362 123.92V129.12Z" fill="#4299E1"/>
</svg>
